<svg viewBox="0 0 24 24" xmlns="http://www.w3.org/2000/svg" xmlns:xlink="http://www.w3.org/1999/xlink" width="24.000000" height="24.000000" fill="none">
	<rect id="Huge-icon/user/outline/user-circle" width="24.000000" height="24.000000" x="0.000000" y="0.000000" />
	<path id="Vector" d="M12 2C17.5228 2 22 6.47715 22 12C22 15.0134 20.6672 17.7154 18.5588 19.5488C16.8031 21.0756 14.5095 22 12 22C9.49052 22 7.19694 21.0756 5.44117 19.5488C3.33285 17.7154 2 15.0134 2 12C2 6.47715 6.47715 2 12 2ZM5.44117 19.5488C6.4346 16.8918 8.99638 15 12 15C15.0036 15 17.5654 16.8918 18.5588 19.5488" fill-rule="evenodd" stroke="rgb(8.21014,8.88274,2.92541)" stroke-linejoin="round" stroke-width="1.500000" />
	<circle id="Ellipse 321" cx="3" cy="3" r="3" stroke="rgb(8.21014,8.88274,2.92541)" stroke-linejoin="round" stroke-width="1.500000" transform="matrix(1,0,0,-1,9,12)" />
</svg>
